<?xml version="1.0" encoding="UTF-8"?>
<svg width="64px" height="64px" viewBox="0 0 64 64" version="1.1" xmlns="http://www.w3.org/2000/svg" xmlns:xlink="http://www.w3.org/1999/xlink">
    <title>画板</title>
    <defs>
        <linearGradient x1="97.18687%" y1="87.104195%" x2="71.7144454%" y2="22.0640669%" id="linearGradient-1">
            <stop stop-color="#FFC3A0" offset="0%"></stop>
            <stop stop-color="#FFAFBD" offset="100%"></stop>
        </linearGradient>
        <linearGradient x1="50%" y1="0%" x2="50%" y2="100%" id="linearGradient-2">
            <stop stop-color="#0C0C02" offset="0%"></stop>
            <stop stop-color="#43003E" offset="100%"></stop>
        </linearGradient>
    </defs>
    <g id="画板" stroke="none" stroke-width="1" fill="none" fill-rule="evenodd">
        <rect id="矩形" fill="url(#linearGradient-1)" x="0" y="0" width="64" height="64"></rect>
        <g id="logoMadbell" transform="translate(11.000000, 13.000000)" fill-rule="nonzero">
            <rect id="矩形" fill="#FFFFFF" opacity="0" x="0" y="0" width="39" height="39"></rect>
            <g id="编组-2" transform="translate(1.000000, 0.000000)">
                <path d="M18.9050813,34.1298404 C20.7423501,34.9781998 24.1960609,34.8365914 28.1134197,35.473503 C32.0307784,36.1104148 34.9181903,40.9751427 35.7000808,38.0966746 C36.7998338,34.0480212 34.0798476,26.4695091 31.717081,20.2713163 C31.6339705,20.0532941 34.1314402,19.9233547 35.7000808,16.9134949 C36.6288956,15.1313135 36.6097314,10.6728524 37.2285712,9.12016269 C39.1529237,4.29189749 36.8971755,5.49409011 36.6818853,4.99958529 C36.5491237,4.69464194 37.4116567,0.0738643235 36.0443831,2.32979844 C35.7560605,2.80551633 33.1381994,9.83199638 32.5270906,11.1394319 C31.1563038,14.0721591 29.9377567,14.3457778 29.8553319,14.1241476 C29.2869742,13.4116262 28.903611,12.416721 28.7052429,11.1394319 C27.761099,5.06010961 23.7567296,-1.70219506e-15 17.6524291,-1.70219506e-15 C11.5481287,-1.70219506e-15 6.59961547,4.98729845 6.59961547,11.1394319 C6.25547176,12.1526692 6.0833999,13.1475745 6.0833999,14.1241476 C6.0833999,14.5259594 3.74461343,16.4283707 2.54691712,17.7347309 C0.637228226,19.8176808 0.0139404299,22.0220455 1.70929542e-15,22.7073717 C-0.00785772743,23.1228296 0.301206698,26.9222103 1.96968099,26.0317783 C2.08387977,25.9708327 2.25838196,25.5438849 2.49616181,24.9667123 C2.82635277,24.1652267 3.27534203,23.0321659 3.85753701,22.2291147 C4.69464352,21.0744511 5.95253218,20.7630847 6.0833999,20.7652136 C6.05667786,24.5537769 6.05667786,26.6473741 6.0833999,27.0460051 C6.31348464,30.478336 7.04941129,31.5796952 8.84434543,34.1298404 C10.0149529,35.7929762 11.7422683,36.4754063 13.4957914,35.473503 C14.2175536,35.0611127 16.2757099,32.9157276 18.9050813,34.1298404 Z" id="椭圆形" fill="url(#linearGradient-2)"></path>
                <ellipse id="椭圆形" fill="#FFFFFF" cx="22.2209254" cy="9.87906361" rx="4.42112547" ry="4.50396333"></ellipse>
                <g id="编组-3" transform="translate(17.850078, 7.350183)">
                    <ellipse id="椭圆形" fill="#160B0D" transform="translate(3.537242, 3.288817) rotate(-18.000000) translate(-3.537242, -3.288817) " cx="3.53724224" cy="3.28881707" rx="2.9020613" ry="2.51513004"></ellipse>
                    <ellipse id="椭圆形" fill="#FFFFFF" cx="5.12150362" cy="2.56595063" rx="1" ry="1"></ellipse>
                </g>
                <ellipse id="椭圆形" fill="#FFFFFF" cx="11.0207409" cy="13.0670541" rx="1.36318035" ry="1.31597283"></ellipse>
                <ellipse id="椭圆形" fill="#FFFFFF" transform="translate(18.845197, 22.408607) rotate(50.000000) translate(-18.845197, -22.408607) " cx="18.8451971" cy="22.4086073" rx="5.67580006" ry="3.71212851"></ellipse>
                <ellipse id="椭圆形" fill="#000000" cx="11.740578" cy="12.8439556" rx="1" ry="1"></ellipse>
            </g>
        </g>
    </g>
</svg>